<svg width="25" height="24" viewBox="0 0 25 24" fill="none" xmlns="http://www.w3.org/2000/svg">
<g id="vuesax/linear/folder-open">
<g id="folder-open">
<path id="Vector" d="M22.1698 14.3L21.7698 19.3C21.6198 20.83 21.4998 22 18.7898 22H6.20977C3.49977 22 3.37977 20.83 3.22977 19.3L2.82977 14.3C2.74977 13.47 3.00977 12.7 3.47977 12.11C3.48977 12.1 3.48977 12.1 3.49977 12.09C4.04977 11.42 4.87977 11 5.80977 11H19.1898C20.1198 11 20.9398 11.42 21.4798 12.07C21.4898 12.08 21.4998 12.09 21.4998 12.1C21.9898 12.69 22.2598 13.46 22.1698 14.3Z" stroke="white" stroke-width="1.5" stroke-miterlimit="10"/>
<path id="Vector_2" d="M4 11.4303V6.28027C4 2.88027 4.85 2.03027 8.25 2.03027H9.52C10.79 2.03027 11.08 2.41027 11.56 3.05027L12.83 4.75027C13.15 5.17027 13.34 5.43027 14.19 5.43027H16.74C20.14 5.43027 20.99 6.28027 20.99 9.68027V11.4703" stroke="white" stroke-width="1.5" stroke-miterlimit="10" stroke-linecap="round" stroke-linejoin="round"/>
<path id="Vector_3" d="M9.93018 17H15.0702" stroke="white" stroke-width="1.5" stroke-miterlimit="10" stroke-linecap="round" stroke-linejoin="round"/>
</g>
</g>
</svg>
