<svg width="108" height="108" viewBox="0 0 108 108" fill="none" xmlns="http://www.w3.org/2000/svg">
<path d="M83.4296 18.54L58.6796 9.27003C56.1146 8.32503 51.9296 8.32503 49.3646 9.27003L24.6146 18.54C19.8446 20.34 15.9746 25.92 15.9746 31.005V67.455C15.9746 71.1 18.3596 75.915 21.2846 78.075L46.0346 96.57C50.3996 99.855 57.5546 99.855 61.9196 96.57L86.6696 78.075C89.5946 75.87 91.9796 71.1 91.9796 67.455V31.005C92.0246 25.92 88.1546 20.34 83.4296 18.54ZM69.6596 43.74L50.3096 63.09C49.6346 63.765 48.7796 64.08 47.9246 64.08C47.0696 64.08 46.2146 63.765 45.5396 63.09L38.3396 55.8C37.0346 54.495 37.0346 52.335 38.3396 51.03C39.6446 49.725 41.8046 49.725 43.1096 51.03L47.9696 55.89L64.9346 38.925C66.2396 37.62 68.3996 37.62 69.7046 38.925C71.0096 40.23 71.0096 42.435 69.6596 43.74Z" fill="#51BC2B"/>
</svg>
