<svg width="76" height="76" viewBox="0 0 76 76" fill="none" xmlns="http://www.w3.org/2000/svg">
<g opacity="0.3">
<path opacity="0.3" d="M47.9739 15.9424C46.425 15.9409 44.9399 15.3248 43.8446 14.2296C42.7493 13.1343 42.1333 11.6492 42.1318 10.1002V1.98877H16.0266C14.0045 1.98877 12.0652 2.79205 10.6354 4.22186C9.20563 5.65167 8.40234 7.59087 8.40234 9.61293V55.5733C8.40234 57.5954 9.20563 59.5347 10.6354 60.9645C12.0652 62.3943 14.0045 63.1976 16.0266 63.1976H47.3619C49.384 63.1976 51.3232 62.3943 52.753 60.9645C54.1828 59.5347 54.9861 57.5954 54.9861 55.5733V15.9424H47.9739Z" fill="#00C650"/>
</g>
<path d="M54.9862 15.9424H47.974C46.425 15.9409 44.9399 15.3248 43.8446 14.2296C42.7494 13.1343 42.1333 11.6492 42.1318 10.1002V1.98877L54.9862 15.9424Z" fill="#00C650"/>
<path d="M60.5167 50.3262H25.0902C22.5772 50.3262 20.54 52.3633 20.54 54.8763V65.4385C20.54 67.9515 22.5772 69.9887 25.0902 69.9887H60.5167C63.0297 69.9887 65.0668 67.9515 65.0668 65.4385V54.8763C65.0668 52.3633 63.0297 50.3262 60.5167 50.3262Z" fill="#00C650"/>
<path d="M33.1732 62.4438V64.5036H31.0398V62.4438H33.1732Z" fill="white"/>
<path d="M39.4146 64.5036L37.6213 61.8517L36.0772 64.5036H33.7171L36.4398 60.1177L33.6321 55.9841H36.0772L37.8253 58.551L39.3325 55.9841H41.6812L38.9953 60.2736L41.8626 64.5036H39.4146Z" fill="white"/>
<path d="M48.4357 63.3477C48.1913 63.7389 47.8404 64.0524 47.4242 64.2515C46.9177 64.4887 46.3628 64.6041 45.8037 64.5886C44.9602 64.6239 44.129 64.3778 43.4408 63.8888C43.1364 63.6604 42.8873 63.3662 42.7122 63.0283C42.5371 62.6903 42.4404 62.3172 42.4293 61.9368H44.6222C44.6379 62.2238 44.7601 62.4945 44.965 62.6961C45.169 62.8862 45.4399 62.9881 45.7186 62.9794C45.8322 62.986 45.9461 62.9702 46.0535 62.9328C46.161 62.8953 46.26 62.837 46.3448 62.7612C46.4204 62.6879 46.4798 62.5997 46.5194 62.5021C46.5589 62.4045 46.5776 62.2998 46.5743 62.1946C46.5771 62.0947 46.5597 61.9953 46.5232 61.9023C46.4867 61.8093 46.4318 61.7247 46.3618 61.6535C46.2118 61.5017 46.0339 61.3804 45.8377 61.2965C45.6318 61.2058 45.3428 61.0953 44.9707 60.9649C44.5192 60.8161 44.0781 60.6372 43.6505 60.4295C43.299 60.2484 42.9974 59.9838 42.7721 59.6589C42.5107 59.2655 42.3817 58.799 42.4038 58.3273C42.3936 57.8598 42.5282 57.4006 42.7891 57.0126C43.0572 56.6335 43.4277 56.3387 43.8573 56.1626C44.3524 55.9613 44.884 55.8648 45.4184 55.8793C46.2297 55.8346 47.0312 56.0741 47.685 56.5565C47.9632 56.7829 48.1911 57.0648 48.3541 57.3844C48.5171 57.704 48.6114 58.054 48.6312 58.4122H46.4015C46.3767 58.1615 46.269 57.9263 46.0955 57.7436C46.0069 57.6587 45.9019 57.5928 45.7869 57.5499C45.6719 57.5071 45.5494 57.4881 45.4269 57.4942C45.2144 57.4846 45.0058 57.5532 44.8404 57.687C44.7641 57.7593 44.7047 57.8476 44.6665 57.9455C44.6283 58.0435 44.6122 58.1487 44.6194 58.2536C44.615 58.444 44.6863 58.6284 44.8177 58.7664C44.9587 58.9136 45.1284 59.0303 45.3164 59.1092C45.5175 59.1971 45.8065 59.3104 46.1833 59.4464C46.643 59.5961 47.091 59.7798 47.5234 59.996C47.8767 60.1865 48.1811 60.4561 48.413 60.7836C48.6774 61.1833 48.8084 61.6564 48.787 62.1351C48.7832 62.5638 48.6617 62.9833 48.4357 63.3477V63.3477Z" fill="white"/>
<path d="M51.9859 62.9255H54.7454V64.5036H49.929V55.9841H51.9915L51.9859 62.9255Z" fill="white"/>
<path d="M42.0868 44.725H21.3137C19.5146 44.725 18.0498 42.9343 18.0498 40.7301V25.6602C18.0498 23.4588 19.5146 21.6682 21.3137 21.6682H42.0953C43.8916 21.6682 45.3564 23.4588 45.3564 25.6602V40.7301C45.3479 42.9343 43.8831 44.725 42.0868 44.725ZM21.3137 23.7081C20.4325 23.7081 19.7186 24.5836 19.7186 25.6602V40.7301C19.7186 41.8067 20.4325 42.6822 21.3137 42.6822H42.0953C42.9736 42.6822 43.6876 41.8067 43.6876 40.7301V25.6602C43.6876 24.5836 42.9736 23.7081 42.0953 23.7081H21.3137Z" fill="#00C650"/>
<path d="M44.5147 35.6504H18.877V37.6931H44.5147V35.6504Z" fill="#00C650"/>
<path d="M44.5147 28.6465H18.877V30.6892H44.5147V28.6465Z" fill="#00C650"/>
<path d="M37.9473 22.6882H35.9045V43.7022H37.9473V22.6882Z" fill="#00C650"/>
<path d="M27.4841 22.6882H25.4414V43.7022H27.4841V22.6882Z" fill="#00C650"/>
</svg>
